<?xml version="1.0" encoding="utf-8"?>
<!-- Generator: Adobe Illustrator 19.0.0, SVG Export Plug-In . SVG Version: 6.00 Build 0)  -->
<svg version="1.1" id="Layer_1" xmlns="http://www.w3.org/2000/svg" xmlns:xlink="http://www.w3.org/1999/xlink" x="0px" y="0px"
	 viewBox="184 -126.8 512 512" style="enable-background:new 184 -126.8 512 512;" xml:space="preserve">
<style type="text/css">
	.st0{fill:#14C5C0;}
</style>
<g>
	<g>
		<path class="st0" d="M440,149.9c-28,0-50.8,22.8-50.8,50.8c0,13.9,5.8,27.3,15.9,36.9v45.9c0,19.3,15.7,35,35,35s35-15.7,35-35
			v-45.9c10.1-9.6,15.9-23,15.9-36.9C490.8,172.7,468,149.9,440,149.9z M458,219.8c-4.9,4.6-7.6,11-7.6,17.5v46.2
			c0,5.7-4.6,10.3-10.3,10.3c-5.7,0-10.3-4.6-10.3-10.3v-46.2c0-6.6-2.8-13-7.6-17.5c-5.3-5-8.2-11.8-8.2-19.1
			c0-14.4,11.8-26.2,26.2-26.2s26.2,11.8,26.2,26.2C466.2,208,463.3,214.8,458,219.8z"/>
	</g>
</g>
<g>
	<g>
		<path class="st0" d="M589,83.1H352.5v-97.8c0-48.2,39.2-87.5,87.5-87.5s87.5,39.2,87.5,87.5v44.3c0,6.8,5.5,12.3,12.3,12.3
			c6.8,0,12.3-5.5,12.3-12.3v-44.3c0-61.8-50.3-112.1-112.1-112.1S327.9-76.5,327.9-14.7v97.8H291c-20.4,0-36.9,16.6-36.9,36.9
			v228.3c0,20.4,16.6,36.9,36.9,36.9h298c20.4,0,36.9-16.6,36.9-36.9V120C625.9,99.6,609.3,83.1,589,83.1z M601.3,348.3
			c0,6.8-5.5,12.3-12.3,12.3H291c-6.8,0-12.3-5.5-12.3-12.3V120c0-6.8,5.5-12.3,12.3-12.3h298c6.8,0,12.3,5.5,12.3,12.3L601.3,348.3
			L601.3,348.3z"/>
	</g>
</g>
</svg>
