<?xml version="1.0" encoding="utf-8"?>
<!-- Generator: Adobe Illustrator 19.0.0, SVG Export Plug-In . SVG Version: 6.00 Build 0)  -->
<svg version="1.1" id="Layer_1" xmlns="http://www.w3.org/2000/svg" xmlns:xlink="http://www.w3.org/1999/xlink" x="0px" y="0px"
	 viewBox="184 -126.8 512 512" style="enable-background:new 184 -126.8 512 512;" xml:space="preserve">
<style type="text/css">
	.st0{fill:#14C5C0;}
</style>
<g transform="translate(1 1)">
	<g>
		<g>
			<path class="st0" d="M520.1,82.1l-41,24.7c-14.5,8.5-29.9,16.2-44.4,23c-4.3,1.7-9.4,4.3-14.5,6.8c-17.9,9.4-27.3,29-23,48.6
				c3.4,15.4,16.2,28.2,31.6,31.6c3.4,0.9,6.8,0.9,10.2,0.9c16.2,0,30.7-9.4,38.4-23.9c1.7-4.3,4.3-9.4,6.8-14.5
				c7.7-14.5,14.5-29.9,23-44.4l24.7-41c1.7-3.4,0.9-6.8-1.7-10.2C527.7,80.4,523.5,80.4,520.1,82.1z M492.8,125.6
				c-9.4,15.4-17.1,30.7-23.9,46.1c-1.7,5.1-4.3,9.4-6.8,14.5c-5.1,11.1-17.1,16.2-29,13.7c-9.4-1.7-17.1-9.4-18.8-18.8
				c-2.6-11.9,2.6-23.9,13.7-29c4.3-2.6,9.4-4.3,14.5-6.8c15.4-7.7,31.6-15.4,46.1-23.9l11.1-6.8L492.8,125.6z"/>
			<path class="st0" d="M676.7,80.4c-0.1-0.6-0.3-1.1-0.5-1.7c-0.2-0.6-0.5-1.1-0.8-1.5C662.6,46.6,644,18.9,621-4.4
				c-0.3-0.5-0.7-0.9-1.1-1.4s-0.9-0.8-1.4-1.1c-46.3-45.7-109.8-74-179.5-74c-33.4,0-65.4,6.5-94.7,18.3c-0.6,0.1-1.1,0.3-1.7,0.5
				c-0.6,0.2-1.1,0.5-1.5,0.8c-30.6,12.8-58.3,31.4-81.6,54.3c-0.5,0.3-0.9,0.7-1.4,1.1c-0.4,0.4-0.8,0.9-1.1,1.4
				c-45.7,46.3-74,109.8-74,179.5c0,58,18.8,113.5,55.5,158.7c1.7,2.6,4.3,3.4,6.8,3.4h387.4c2.6,0,5.1-0.9,6.8-3.4
				c36.7-45.2,55.5-100.7,55.5-158.7C695,141.7,688.5,109.7,676.7,80.4z M629.3,320.2H249.6c-11.5-14.9-21.1-30.8-28.7-47.6
				l23.6-9.6c4.3-1.7,6-6.8,4.3-11.1c-1.7-4.3-6.8-6-11.1-4.3l-23.1,9.4c-8.6-23.3-13.4-48-14.3-73.4h59.6c5.1,0,8.5-3.4,8.5-8.5
				s-3.4-8.5-8.5-8.5h-59.6c1-26.9,6.4-52.7,15.6-76.7l23.4,10.1c0.9,0.9,2.6,0.9,3.4,0.9c3.4,0,6-1.7,7.7-5.1
				c1.7-4.3,0-9.4-4.3-11.1l-23.7-10.2c10.7-22.8,24.9-43.7,41.9-62L282,30.1c1.7,1.7,3.4,2.6,6,2.6s4.3-0.9,6-2.6
				c3.4-3.4,3.4-8.5,0-11.9L276.3,0.5c19.1-17.8,41.1-32.6,65.2-43.4l9.5,23.5c0.9,3.4,4.3,5.1,7.7,5.1c0.9,0,1.7,0,3.4-0.9
				c4.3-1.7,6-6.8,4.3-11.1l-9.3-23c23-8.5,47.7-13.5,73.3-14.4v59.6c0,5.1,3.4,8.5,8.5,8.5c5.1,0,8.5-3.4,8.5-8.5v-59.6
				c26.9,1,52.7,6.4,76.7,15.6l-10.1,23.4c-1.7,4.3,0,9.4,4.3,11.1c0.9,0.9,2.6,0.9,3.4,0.9c3.4,0,6.8-2.6,7.7-5.1l10.2-23.7
				c22.8,10.7,43.7,24.9,62,41.9l-17.6,17.6c-3.4,3.4-3.4,8.5,0,11.9c1.7,1.7,3.4,2.6,6,2.6c1.7,0,4.3-0.9,6-2.6l17.6-17.6
				c17.8,19.1,32.6,41.1,43.4,65.2l-23.5,9.5c-4.3,1.7-6,6.8-4.3,11.1c0.9,3.4,4.3,5.1,7.7,5.1c0.9,0,1.7-0.9,3.4-0.9l23-9.3
				c8.5,23,13.5,47.7,14.4,73.3h-59.6c-5.1,0-8.5,3.4-8.5,8.5s3.4,8.5,8.5,8.5h59.6c-0.9,26.6-6.2,52.5-15.4,76.8l-23.7-10.2
				c-4.3-1.7-9.4,0-11.1,4.3c-1.7,4.3,0,9.4,4.3,11.1l24,10.4C648.6,291.5,639.8,306.3,629.3,320.2z"/>
		</g>
	</g>
</g>
</svg>
