<svg version="1.0" xmlns="http://www.w3.org/2000/svg" xmlns:xlink="http://www.w3.org/1999/xlink" x="0px" y="0px" viewBox="0 0 469.331 469.275" enable-background="new 0 0 469.331 469.275" xml:space="preserve">
<g>
	<defs>
		<rect id="SVGID_1_" width="469.331" height="469.275"/>
	</defs>
	<clipPath id="SVGID_2_">
		<use xlink:href="#SVGID_1_"  overflow="visible"/>
	</clipPath>
	<path clip-path="url(#SVGID_2_)" d="M438.931,30.375c-40.4-40.5-106.1-40.5-146.5,0l-268.6,268.5c-2.1,2.101-3.4,4.801-3.8,7.7
		l-19.9,147.4c-0.6,4.2,0.9,8.399,3.8,11.3c2.5,2.5,6,4,9.5,4c0.6,0,1.2,0,1.8-0.1l88.8-12c7.4-1,12.6-7.801,11.6-15.2
		c-1-7.4-7.8-12.601-15.2-11.601l-71.2,9.601l13.9-102.8l108.2,108.199c2.5,2.5,6,4,9.5,4s7-1.399,9.5-4l268.6-268.5
		c19.6-19.6,30.4-45.6,30.4-73.3C469.331,75.875,458.53,49.875,438.931,30.375 M297.631,63.375l45.1,45.1l-245.1,245.1l-45.1-45.1
		L297.631,63.375z M160.931,416.775l-44.1-44.1l245.1-245.101l44.1,44.1L160.931,416.775z M424.831,152.375l-107.9-107.9
		c13.7-11.3,30.8-17.5,48.8-17.5c20.5,0,39.7,8,54.2,22.4s22.4,33.7,22.4,54.2C442.331,121.675,436.131,138.675,424.831,152.375"/>
</g>
</svg>
