<svg version="1.0" xmlns="http://www.w3.org/2000/svg" xmlns:xlink="http://www.w3.org/1999/xlink" x="0px" y="0px" viewBox="0 0 59.201 33.912" enable-background="new 0 0 59.201 33.912" xml:space="preserve">
<g>
	<defs>
		<rect id="SVGID_1_" y="0" width="59.201" height="33.912"/>
	</defs>
	<clipPath id="SVGID_2_">
		<use xlink:href="#SVGID_1_"  overflow="visible"/>
	</clipPath>
	<path clip-path="url(#SVGID_2_)" d="M51.062,8.917C39.173-2.972,19.83-2.972,7.941,8.917L0,16.856l8.138,8.138
		c5.944,5.944,13.752,8.917,21.561,8.917c7.809,0,15.616-2.972,21.561-8.917l7.941-7.941L51.062,8.917z M49.845,23.581
		c-11.108,11.108-29.184,11.108-40.293,0l-6.724-6.724l6.527-6.527c11.109-11.108,29.184-11.108,40.293,0l6.724,6.724L49.845,23.581
		z"/>
	<path clip-path="url(#SVGID_2_)" d="M28.572,8.926c-3.86,0-7,3.14-7,7c0,0.552,0.448,1,1,1c0.552,0,1-0.448,1-1
		c0-2.757,2.243-5,5-5c0.552,0,1-0.448,1-1C29.572,9.374,29.125,8.926,28.572,8.926"/>
	<path clip-path="url(#SVGID_2_)" d="M29.572,3.926c-7.168,0-13,5.832-13,13c0,7.167,5.832,13,13,13c7.168,0,13-5.832,13-13
		C42.572,9.758,36.741,3.926,29.572,3.926 M29.572,27.925c-6.065,0-11-4.935-11-11s4.935-11,11-11c6.064,0,11,4.935,11,11
		S35.638,27.925,29.572,27.925"/>
</g>
</svg>
