<?xml version="1.0" encoding="utf-8"?>
<!-- Generator: Adobe Illustrator 19.0.0, SVG Export Plug-In . SVG Version: 6.00 Build 0)  -->
<svg version="1.1" id="Isolation_Mode" xmlns="http://www.w3.org/2000/svg" xmlns:xlink="http://www.w3.org/1999/xlink" x="0px"
	 y="0px" viewBox="0 0 392.2 297.9" style="enable-background:new 0 0 392.2 297.9;" xml:space="preserve">
<style type="text/css">
	.st0{fill:#30BEBB;}
</style>
<path class="st0" d="M0,49.7v198.6c0,27.4,22.3,49.7,49.7,49.7h160.5c27.4,0,49.7-22.3,49.7-49.7v-32.2c0-5.4-4.4-9.8-9.8-9.8
	s-9.8,4.4-9.8,9.8v32.2c0,16.6-13.5,30.1-30.1,30.1H49.7c-16.6,0-30.1-13.5-30.1-30.1V49.7c0-16.6,13.5-30.1,30.1-30.1h160.5
	c16.6,0,30.1,13.5,30.1,30.1v32.2c0,5.4,4.4,9.8,9.8,9.8c5.4,0,9.8-4.4,9.8-9.8V49.7c0-27.4-22.3-49.7-49.7-49.7H49.7
	C22.3,0,0,22.2,0,49.7L0,49.7z M0,49.7"/>
<path class="st0" d="M308.3,223c1.9,1.9,4.4,2.9,7,2.9c2.6,0,5-1,7-2.9l67.1-67.1c3.8-3.8,3.8-10,0-13.8l-67.1-67.1
	c-3.8-3.8-10-3.8-13.8,0c-3.8,3.8-3.8,10,0,13.8l50.4,50.4H174.9c-5.4,0-9.8,4.4-9.8,9.8c0,5.4,4.4,9.8,9.8,9.8h183.8l-50.4,50.4
	C304.5,213,304.5,219.2,308.3,223L308.3,223z M308.3,223"/>
</svg>
