<svg version="1.1" xmlns="http://www.w3.org/2000/svg" xmlns:xlink="http://www.w3.org/1999/xlink" x="0px" y="0px"
	 viewBox="-43 102.4 55.8 55.8" style="enable-background:new -43 102.4 55.8 55.8;" xml:space="preserve">
<g fill="#fff">
	<path d="M12.3,142.3c-0.4-4.1-3.5-7.1-7.3-7.1c-2.4,0-4.4,1.4-5.7,3.2c-1.3-1.8-3.3-3.2-5.7-3.2c-3.8,0-6.9,3-7.3,7.1
		c0,0.3-0.1,1.2,0.2,2.7c0.5,2.2,1.8,4.2,3.6,5.8l8.3,7.1c0.2,0.2,0.5,0.3,0.8,0.3c0.3,0,0.5-0.1,0.8-0.3l8.3-7.1
		c1.8-1.6,3.1-3.6,3.6-5.8C12.4,143.5,12.3,142.6,12.3,142.3z M10.1,144.5c-0.4,1.8-1.5,3.4-3,4.7l-7.8,6.7l-7.8-6.7
		c-1.5-1.3-2.5-2.9-3-4.7c-0.3-1.2-0.2-1.9-0.2-1.9l0-0.1c0.2-2.6,2.1-5.3,5.3-5.3c2.2,0,4,1.8,4.8,3.6l0.9,2.1l0.9-2.1
		c0.8-1.8,2.6-3.6,4.8-3.6c3.1,0,5,2.7,5.3,5.4C10.3,142.6,10.4,143.3,10.1,144.5z"/>
	<path d="M-15.5,114.4c-0.6,0-1,0.4-1,1c0,0.6,0.4,1,1,1h18c0.6,0,1-0.4,1-1c0-0.6-0.4-1-1-1H-15.5z"/>
	<path d="M3.5,129.4c0-0.6-0.4-1-1-1h-18c-0.6,0-1,0.4-1,1c0,0.6,0.4,1,1,1h18C3.1,130.4,3.5,129.9,3.5,129.4z"/>
	<path d="M-21.9,109.6c-0.4-0.4-1-0.3-1.4,0.1l-6.2,7.3l-3.8-2.9c-0.4-0.3-1.1-0.2-1.4,0.2c-0.3,0.4-0.2,1.1,0.2,1.4l4.6,3.4
		c0.2,0.1,0.4,0.2,0.6,0.2c0.3,0,0.6-0.1,0.8-0.3l6.9-8C-21.5,110.6-21.5,110-21.9,109.6z"/>
	<path d="M-21.9,123.6c-0.4-0.4-1-0.3-1.4,0.1l-6.2,7.3l-3.8-2.9c-0.4-0.3-1.1-0.2-1.4,0.2c-0.3,0.4-0.2,1.1,0.2,1.4l4.6,3.4
		c0.2,0.1,0.4,0.2,0.6,0.2c0.3,0,0.6-0.1,0.8-0.3l6.9-8C-21.5,124.6-21.5,124-21.9,123.6z"/>
	<path d="M-23.3,138.7l-6.2,7.3l-3.8-2.9c-0.4-0.3-1.1-0.2-1.4,0.2c-0.3,0.4-0.2,1.1,0.2,1.4l4.6,3.4c0.2,0.1,0.4,0.2,0.6,0.2
		c0.3,0,0.6-0.1,0.8-0.4l6.9-8c0.4-0.4,0.3-1.1-0.1-1.4C-22.3,138.2-23,138.3-23.3,138.7z"/>
	<path d="M-17.5,154.4h-12.8c-5.6,0-10.2-4.6-10.2-10.2v-29.6c0-5.6,4.6-10.2,10.2-10.2h29.6c5.6,0,10.2,4.6,10.2,10.2v17.8
		c0,0.6,0.4,1,1,1s1-0.4,1-1v-17.8c0-6.7-5.5-12.2-12.2-12.2h-29.6c-6.7,0-12.2,5.5-12.2,12.2v29.6c0,6.7,5.5,12.2,12.2,12.2h12.8
		c0.6,0,1-0.4,1-1C-16.5,154.8-16.9,154.4-17.5,154.4z"/>
</g>
</svg>
