<?xml version="1.0" encoding="utf-8"?>
<!-- Generator: Adobe Illustrator 16.0.0, SVG Export Plug-In . SVG Version: 6.00 Build 0)  -->
<!DOCTYPE svg PUBLIC "-//W3C//DTD SVG 1.0//EN" "http://www.w3.org/TR/2001/REC-SVG-20010904/DTD/svg10.dtd">
<svg version="1.0" id="Layer_1" xmlns="http://www.w3.org/2000/svg" xmlns:xlink="http://www.w3.org/1999/xlink" x="0px" y="0px"
	 width="512px" height="512px" viewBox="0 0 512 512" enable-background="new 0 0 512 512" xml:space="preserve">
<g>
	<g>
		<path fill-rule="evenodd" clip-rule="evenodd" fill="#3F454B" d="M37.25,120.583h437.5c17.253,0,31.25-13.985,31.25-31.249
			c0-17.253-13.997-31.251-31.25-31.251H37.25C19.987,58.083,6,72.081,6,89.334C6,106.598,19.987,120.583,37.25,120.583z
			 M474.75,224.749H37.25C19.987,224.749,6,238.747,6,256s13.987,31.251,31.25,31.251h437.5c17.253,0,31.25-13.998,31.25-31.251
			S492.003,224.749,474.75,224.749z M474.75,391.418H37.25C19.987,391.418,6,405.413,6,422.666c0,17.254,13.987,31.251,31.25,31.251
			h437.5c17.253,0,31.25-13.997,31.25-31.251C506,405.413,492.003,391.418,474.75,391.418z"/>
	</g>
</g>
</svg>
