<?xml version="1.0" encoding="utf-8"?>
<!-- Generator: Adobe Illustrator 19.0.0, SVG Export Plug-In . SVG Version: 6.00 Build 0)  -->
<svg version="1.1" id="Capa_1" xmlns="http://www.w3.org/2000/svg" xmlns:xlink="http://www.w3.org/1999/xlink" x="0px" y="0px"
	 viewBox="184 -126.8 512 512" style="enable-background:new 184 -126.8 512 512;" xml:space="preserve">
<style type="text/css">
	.st0{fill:#14C5C0;}
</style>
<g>
	<g>
		<path class="st0" d="M438.1,149.1c0.5,0,1.1,0,1.7,0c0.2,0,0.4,0,0.6,0c0.3,0,0.7,0,1.1,0c31.1-0.5,56.2-11.5,74.7-32.3
			c40.8-46,34-124.9,33.3-132.4c-2.7-56.5-29.4-83.5-51.4-96.2c-16.4-9.4-35.6-14.5-57-14.9h-0.7c-0.1,0-0.3,0-0.4,0h-0.6
			c-11.8,0-34.9,1.9-57,14.5c-22.3,12.6-49.4,39.7-52.1,96.6c-0.7,7.5-7.5,86.4,33.3,132.4C382,137.6,407.1,148.5,438.1,149.1z
			 M358.5-13c0-0.3,0.1-0.6,0.1-0.8c3.5-76,57.5-84.2,80.6-84.2h0.4c0.2,0,0.5,0,0.8,0c28.6,0.6,77.3,12.3,80.6,84.2
			c0,0.3,0,0.6,0.1,0.8c0.1,0.7,7.5,72.8-26.2,110.8c-13.4,15.1-31.2,22.5-54.6,22.7c-0.2,0-0.3,0-0.5,0l0,0c-0.2,0-0.3,0-0.5,0
			c-23.3-0.2-41.2-7.6-54.5-22.7C351.2,60,358.4-12.4,358.5-13z"/>
		<path class="st0" d="M657.7,279.9c0-0.1,0-0.2,0-0.3c0-0.8-0.1-1.7-0.1-2.7c-0.6-21-2-70.1-48-85.8c-0.3-0.1-0.7-0.2-1.1-0.3
			c-47.8-12.2-87.6-39.8-88-40.1c-6.5-4.6-15.4-3-19.9,3.5c-4.6,6.5-3,15.4,3.5,19.9c1.8,1.3,44,30.6,96.8,44.2
			c24.7,8.8,27.5,35.2,28.2,59.4c0,1,0,1.8,0.1,2.7c0.1,9.5-0.5,24.3-2.2,32.8c-17.2,9.8-84.5,43.5-186.9,43.5
			c-102,0-169.7-33.8-187-43.6c-1.7-8.5-2.4-23.2-2.2-32.8c0-0.8,0.1-1.7,0.1-2.7c0.7-24.2,3.5-50.6,28.2-59.4
			c52.8-13.6,95-43,96.8-44.2c6.5-4.6,8.1-13.5,3.5-19.9c-4.6-6.5-13.5-8.1-19.9-3.5c-0.4,0.3-40,27.9-88,40.1
			c-0.4,0.1-0.7,0.2-1.1,0.3c-46,15.8-47.4,64.9-48,85.8c0,1,0,1.8-0.1,2.7c0,0.1,0,0.2,0,0.3c-0.1,5.5-0.2,33.8,5.4,48
			c1.1,2.8,3,5.1,5.5,6.7c3.2,2.1,79.4,50.7,207,50.7s203.8-48.7,207-50.7c2.4-1.6,4.5-3.9,5.5-6.7
			C657.9,313.7,657.8,285.4,657.7,279.9z"/>
	</g>
</g>
</svg>
