<?xml version="1.0" encoding="utf-8"?>
<!-- Generator: Adobe Illustrator 19.0.0, SVG Export Plug-In . SVG Version: 6.00 Build 0)  -->
<svg version="1.1" id="Capa_1" xmlns="http://www.w3.org/2000/svg" xmlns:xlink="http://www.w3.org/1999/xlink" x="0px" y="0px"
	 viewBox="184 -126.8 512 512" style="enable-background:new 184 -126.8 512 512;" xml:space="preserve">
<style type="text/css">
	.st0{fill:#13C5C0;}
</style>
<g>
	<g id="radio-button-on">
		<path class="st0" d="M440,2.4c-71.7,0-128,56.3-128,128s56.3,128,128,128s128-56.3,128-128S511.7,2.4,440,2.4z M440-125.6
			c-140.8,0-256,115.2-256,256s115.2,256,256,256s256-115.2,256-256S580.8-125.6,440-125.6z M440,335.2
			c-112.6,0-204.8-92.2-204.8-204.8S327.4-74.4,440-74.4s204.8,92.2,204.8,204.8S552.6,335.2,440,335.2z"/>
	</g>
</g>
</svg>
