<svg version="1.0" xmlns="http://www.w3.org/2000/svg" xmlns:xlink="http://www.w3.org/1999/xlink" x="0px" y="0px" viewBox="0 0 390.119 482.429" enable-background="new 0 0 390.119 482.429" xml:space="preserve">
<g>
	<defs>
		<rect id="SVGID_1_" width="390.119" height="482.429"/>
	</defs>
	<clipPath id="SVGID_2_">
		<use xlink:href="#SVGID_1_"  overflow="visible"/>
	</clipPath>
	<path clip-path="url(#SVGID_2_)" d="M335.008,57.799h-75.094C256.168,25.316,228.531,0,195.059,0
		c-33.471,0-61.104,25.315-64.85,57.799H55.111C24.721,57.799,0,82.527,0,112.916v2.828c0,23.223,14.46,43.1,34.83,51.199v260.369
		c0,30.391,24.724,55.117,55.112,55.117h210.236c30.39,0,55.111-24.729,55.111-55.117V166.944c20.369-8.1,34.83-27.977,34.83-51.199
		v-2.828C390.119,82.527,365.396,57.799,335.008,57.799 M195.059,26.139c19.037,0,34.928,13.645,38.443,31.66h-76.879
		C160.138,39.783,176.029,26.139,195.059,26.139 M329.15,427.312c0,15.979-13,28.979-28.974,28.979H89.941
		c-15.973,0-28.973-13.002-28.973-28.979V170.861H329.15V427.312z M363.98,115.744c0,15.978-13,28.979-28.974,28.979H55.111
		c-15.973,0-28.973-13.001-28.973-28.979v-2.828c0-15.978,13-28.979,28.973-28.979h279.897c15.974,0,28.974,13.001,28.974,28.979
		L363.98,115.744L363.98,115.744z"/>
	<path clip-path="url(#SVGID_2_)" d="M124.989,422.863c7.218,0,13.069-5.853,13.069-13.067V262.641
		c0-7.216-5.852-13.07-13.069-13.07c-7.217,0-13.069,5.854-13.069,13.07v147.154C111.919,417.012,117.771,422.863,124.989,422.863"
		/>
	<path clip-path="url(#SVGID_2_)" d="M195.059,422.863c7.219,0,13.07-5.853,13.07-13.067V262.641c0-7.216-5.854-13.07-13.07-13.07
		s-13.068,5.854-13.068,13.07v147.154C181.99,417.012,187.841,422.863,195.059,422.863"/>
	<path clip-path="url(#SVGID_2_)" d="M265.129,422.863c7.217,0,13.068-5.853,13.068-13.067V262.641
		c0-7.216-5.853-13.07-13.068-13.07c-7.219,0-13.07,5.854-13.07,13.07v147.154C252.058,417.012,257.912,422.863,265.129,422.863"/>
</g>
</svg>
