<svg id="Layer_1" xmlns="http://www.w3.org/2000/svg" viewBox="184 -126.8 512 512"><style>.st0{fill:#14c5c0}</style><path class="st0" d="M440 149.9c-28 0-50.8 22.8-50.8 50.8 0 13.9 5.8 27.3 15.9 36.9v45.9c0 19.3 15.7 35 35 35s35-15.7 35-35v-45.9c10.1-9.6 15.9-23 15.9-36.9-.2-28-23-50.8-51-50.8zm18 69.9c-4.9 4.6-7.6 11-7.6 17.5v46.2c0 5.7-4.6 10.3-10.3 10.3-5.7 0-10.3-4.6-10.3-10.3v-46.2c0-6.6-2.8-13-7.6-17.5-5.3-5-8.2-11.8-8.2-19.1 0-14.4 11.8-26.2 26.2-26.2s26.2 11.8 26.2 26.2c-.2 7.3-3.1 14.1-8.4 19.1z"/><path class="st0" d="M589 83.1H352.5v-97.8c0-48.2 39.2-87.5 87.5-87.5s87.5 39.2 87.5 87.5v44.3c0 6.8 5.5 12.3 12.3 12.3 6.8 0 12.3-5.5 12.3-12.3v-44.3c0-61.8-50.3-112.1-112.1-112.1S327.9-76.5 327.9-14.7v97.8H291c-20.4 0-36.9 16.6-36.9 36.9v228.3c0 20.4 16.6 36.9 36.9 36.9h298c20.4 0 36.9-16.6 36.9-36.9V120c0-20.4-16.6-36.9-36.9-36.9zm12.3 265.2c0 6.8-5.5 12.3-12.3 12.3H291c-6.8 0-12.3-5.5-12.3-12.3V120c0-6.8 5.5-12.3 12.3-12.3h298c6.8 0 12.3 5.5 12.3 12.3v228.3z"/></svg>