<svg id="Layer_1" xmlns="http://www.w3.org/2000/svg" viewBox="184 -126.8 512 512"><style>.st0{fill:#14c5c0}</style><path class="st0" d="M520.1 82.1l-41 24.7c-14.5 8.5-29.9 16.2-44.4 23-4.3 1.7-9.4 4.3-14.5 6.8-17.9 9.4-27.3 29-23 48.6 3.4 15.4 16.2 28.2 31.6 31.6 3.4.9 6.8.9 10.2.9 16.2 0 30.7-9.4 38.4-23.9 1.7-4.3 4.3-9.4 6.8-14.5 7.7-14.5 14.5-29.9 23-44.4l24.7-41c1.7-3.4.9-6.8-1.7-10.2-2.5-3.3-6.7-3.3-10.1-1.6zm-27.3 43.5c-9.4 15.4-17.1 30.7-23.9 46.1-1.7 5.1-4.3 9.4-6.8 14.5-5.1 11.1-17.1 16.2-29 13.7-9.4-1.7-17.1-9.4-18.8-18.8-2.6-11.9 2.6-23.9 13.7-29 4.3-2.6 9.4-4.3 14.5-6.8 15.4-7.7 31.6-15.4 46.1-23.9l11.1-6.8-6.9 11z" transform="translate(1 1)"/><path class="st0" d="M676.7 80.4c-.1-.6-.3-1.1-.5-1.7-.2-.6-.5-1.1-.8-1.5C662.6 46.6 644 18.9 621-4.4c-.3-.5-.7-.9-1.1-1.4s-.9-.8-1.4-1.1c-46.3-45.7-109.8-74-179.5-74-33.4 0-65.4 6.5-94.7 18.3-.6.1-1.1.3-1.7.5-.6.2-1.1.5-1.5.8-30.6 12.8-58.3 31.4-81.6 54.3-.5.3-.9.7-1.4 1.1-.4.4-.8.9-1.1 1.4-45.7 46.3-74 109.8-74 179.5 0 58 18.8 113.5 55.5 158.7 1.7 2.6 4.3 3.4 6.8 3.4h387.4c2.6 0 5.1-.9 6.8-3.4C676.2 288.5 695 233 695 175c0-33.3-6.5-65.3-18.3-94.6zm-47.4 239.8H249.6c-11.5-14.9-21.1-30.8-28.7-47.6l23.6-9.6c4.3-1.7 6-6.8 4.3-11.1-1.7-4.3-6.8-6-11.1-4.3l-23.1 9.4c-8.6-23.3-13.4-48-14.3-73.4h59.6c5.1 0 8.5-3.4 8.5-8.5s-3.4-8.5-8.5-8.5h-59.6c1-26.9 6.4-52.7 15.6-76.7l23.4 10.1c.9.9 2.6.9 3.4.9 3.4 0 6-1.7 7.7-5.1 1.7-4.3 0-9.4-4.3-11.1l-23.7-10.2c10.7-22.8 24.9-43.7 41.9-62L282 30.1c1.7 1.7 3.4 2.6 6 2.6s4.3-.9 6-2.6c3.4-3.4 3.4-8.5 0-11.9L276.3.5c19.1-17.8 41.1-32.6 65.2-43.4l9.5 23.5c.9 3.4 4.3 5.1 7.7 5.1.9 0 1.7 0 3.4-.9 4.3-1.7 6-6.8 4.3-11.1l-9.3-23c23-8.5 47.7-13.5 73.3-14.4v59.6c0 5.1 3.4 8.5 8.5 8.5s8.5-3.4 8.5-8.5v-59.6c26.9 1 52.7 6.4 76.7 15.6L514-24.7c-1.7 4.3 0 9.4 4.3 11.1.9.9 2.6.9 3.4.9 3.4 0 6.8-2.6 7.7-5.1l10.2-23.7c22.8 10.7 43.7 24.9 62 41.9L584 18c-3.4 3.4-3.4 8.5 0 11.9 1.7 1.7 3.4 2.6 6 2.6 1.7 0 4.3-.9 6-2.6l17.6-17.6c17.8 19.1 32.6 41.1 43.4 65.2L633.5 87c-4.3 1.7-6 6.8-4.3 11.1.9 3.4 4.3 5.1 7.7 5.1.9 0 1.7-.9 3.4-.9l23-9.3c8.5 23 13.5 47.7 14.4 73.3h-59.6c-5.1 0-8.5 3.4-8.5 8.5s3.4 8.5 8.5 8.5h59.6c-.9 26.6-6.2 52.5-15.4 76.8l-23.7-10.2c-4.3-1.7-9.4 0-11.1 4.3-1.7 4.3 0 9.4 4.3 11.1l24 10.4c-7.2 15.8-16 30.6-26.5 44.5z" transform="translate(1 1)"/></svg>