<svg version="1" xmlns="http://www.w3.org/2000/svg" xmlns:xlink="http://www.w3.org/1999/xlink" viewBox="0 0 469.331 469.275"><defs><path id="a" d="M0 0h469.331v469.275H0z"/></defs><clipPath id="b"><use xlink:href="#a" overflow="visible"/></clipPath><path clip-path="url(#b)" d="M438.931 30.375c-40.4-40.5-106.1-40.5-146.5 0l-268.6 268.5c-2.1 2.101-3.4 4.801-3.8 7.7l-19.9 147.4c-.6 4.2.9 8.399 3.8 11.3 2.5 2.5 6 4 9.5 4 .6 0 1.2 0 1.8-.1l88.8-12c7.4-1 12.6-7.801 11.6-15.2-1-7.4-7.8-12.601-15.2-11.601l-71.2 9.601 13.9-102.8 108.2 108.199c2.5 2.5 6 4 9.5 4s7-1.399 9.5-4l268.6-268.5c19.6-19.6 30.4-45.6 30.4-73.3 0-27.699-10.801-53.699-30.4-73.199m-141.3 33l45.1 45.1-245.1 245.1-45.1-45.1 245.1-245.1zm-136.7 353.4l-44.1-44.1 245.1-245.101 44.1 44.1-245.1 245.101zm263.9-264.4l-107.9-107.9c13.7-11.3 30.8-17.5 48.8-17.5 20.5 0 39.7 8 54.2 22.4s22.4 33.7 22.4 54.2c0 18.1-6.2 35.1-17.5 48.8"/></svg>