<svg version="1" xmlns="http://www.w3.org/2000/svg" xmlns:xlink="http://www.w3.org/1999/xlink" viewBox="0 0 59.201 33.912"><defs><path id="a" d="M0 0h59.201v33.912H0z"/></defs><clipPath id="b"><use xlink:href="#a" overflow="visible"/></clipPath><path clip-path="url(#b)" d="M51.062 8.917C39.173-2.972 19.83-2.972 7.941 8.917L0 16.856l8.138 8.138c5.944 5.944 13.752 8.917 21.561 8.917 7.809 0 15.616-2.972 21.561-8.917l7.941-7.941-8.139-8.136zm-1.217 14.664c-11.108 11.108-29.184 11.108-40.293 0l-6.724-6.724 6.527-6.527c11.109-11.108 29.184-11.108 40.293 0l6.724 6.724-6.527 6.527z"/><path clip-path="url(#b)" d="M28.572 8.926c-3.86 0-7 3.14-7 7a1 1 0 0 0 2 0c0-2.757 2.243-5 5-5a1 1 0 0 0 0-2"/><path clip-path="url(#b)" d="M29.572 3.926c-7.168 0-13 5.832-13 13 0 7.167 5.832 13 13 13s13-5.832 13-13-5.831-13-13-13m0 23.999c-6.065 0-11-4.935-11-11s4.935-11 11-11c6.064 0 11 4.935 11 11s-4.934 11-11 11"/></svg>