<svg xmlns="http://www.w3.org/2000/svg" viewBox="-43 102.4 55.8 55.8"><g fill="#fff"><path d="M12.3 142.3c-.4-4.1-3.5-7.1-7.3-7.1-2.4 0-4.4 1.4-5.7 3.2-1.3-1.8-3.3-3.2-5.7-3.2-3.8 0-6.9 3-7.3 7.1 0 .3-.1 1.2.2 2.7.5 2.2 1.8 4.2 3.6 5.8l8.3 7.1c.2.2.5.3.8.3.3 0 .5-.1.8-.3l8.3-7.1c1.8-1.6 3.1-3.6 3.6-5.8.5-1.5.4-2.4.4-2.7zm-2.2 2.2c-.4 1.8-1.5 3.4-3 4.7l-7.8 6.7-7.8-6.7c-1.5-1.3-2.5-2.9-3-4.7-.3-1.2-.2-1.9-.2-1.9v-.1c.2-2.6 2.1-5.3 5.3-5.3 2.2 0 4 1.8 4.8 3.6l.9 2.1.9-2.1c.8-1.8 2.6-3.6 4.8-3.6 3.1 0 5 2.7 5.3 5.4 0 0 .1.7-.2 1.9zm-25.6-30.1c-.6 0-1 .4-1 1s.4 1 1 1h18c.6 0 1-.4 1-1s-.4-1-1-1h-18zm19 15c0-.6-.4-1-1-1h-18c-.6 0-1 .4-1 1s.4 1 1 1h18c.6 0 1-.5 1-1zm-25.4-19.8c-.4-.4-1-.3-1.4.1l-6.2 7.3-3.8-2.9c-.4-.3-1.1-.2-1.4.2-.3.4-.2 1.1.2 1.4l4.6 3.4c.2.1.4.2.6.2.3 0 .6-.1.8-.3l6.9-8c.1-.4.1-1-.3-1.4zm0 14c-.4-.4-1-.3-1.4.1l-6.2 7.3-3.8-2.9c-.4-.3-1.1-.2-1.4.2-.3.4-.2 1.1.2 1.4l4.6 3.4c.2.1.4.2.6.2.3 0 .6-.1.8-.3l6.9-8c.1-.4.1-1-.3-1.4zm-1.4 15.1l-6.2 7.3-3.8-2.9c-.4-.3-1.1-.2-1.4.2-.3.4-.2 1.1.2 1.4l4.6 3.4c.2.1.4.2.6.2.3 0 .6-.1.8-.4l6.9-8c.4-.4.3-1.1-.1-1.4-.6-.3-1.3-.2-1.6.2z"/><path d="M-17.5 154.4h-12.8c-5.6 0-10.2-4.6-10.2-10.2v-29.6c0-5.6 4.6-10.2 10.2-10.2H-.7c5.6 0 10.2 4.6 10.2 10.2v17.8c0 .6.4 1 1 1s1-.4 1-1v-17.8c0-6.7-5.5-12.2-12.2-12.2h-29.6c-6.7 0-12.2 5.5-12.2 12.2v29.6c0 6.7 5.5 12.2 12.2 12.2h12.8c.6 0 1-.4 1-1s-.4-1-1-1z"/></g></svg>