<svg id="Isolation_Mode" xmlns="http://www.w3.org/2000/svg" viewBox="0 0 392.2 297.9"><style>.st0{fill:#30bebb}</style><path class="st0" d="M0 49.7v198.6C0 275.7 22.3 298 49.7 298h160.5c27.4 0 49.7-22.3 49.7-49.7v-32.2c0-5.4-4.4-9.8-9.8-9.8s-9.8 4.4-9.8 9.8v32.2c0 16.6-13.5 30.1-30.1 30.1H49.7c-16.6 0-30.1-13.5-30.1-30.1V49.7c0-16.6 13.5-30.1 30.1-30.1h160.5c16.6 0 30.1 13.5 30.1 30.1v32.2c0 5.4 4.4 9.8 9.8 9.8s9.8-4.4 9.8-9.8V49.7c0-27.4-22.3-49.7-49.7-49.7H49.7C22.3 0 0 22.2 0 49.7zm0 0"/><path class="st0" d="M308.3 223c1.9 1.9 4.4 2.9 7 2.9 2.6 0 5-1 7-2.9l67.1-67.1c3.8-3.8 3.8-10 0-13.8L322.3 75c-3.8-3.8-10-3.8-13.8 0-3.8 3.8-3.8 10 0 13.8l50.4 50.4h-184c-5.4 0-9.8 4.4-9.8 9.8s4.4 9.8 9.8 9.8h183.8l-50.4 50.4c-3.8 3.8-3.8 10 0 13.8zm0 0"/></svg>