<svg version="1" xmlns="http://www.w3.org/2000/svg" width="512" height="512" viewBox="0 0 512 512"><path fill-rule="evenodd" clip-rule="evenodd" fill="#3F454B" d="M37.25 120.583h437.5c17.253 0 31.25-13.985 31.25-31.249 0-17.253-13.997-31.251-31.25-31.251H37.25C19.987 58.083 6 72.081 6 89.334c0 17.264 13.987 31.249 31.25 31.249zm437.5 104.166H37.25C19.987 224.749 6 238.747 6 256s13.987 31.251 31.25 31.251h437.5c17.253 0 31.25-13.998 31.25-31.251s-13.997-31.251-31.25-31.251zm0 166.669H37.25C19.987 391.418 6 405.413 6 422.666c0 17.254 13.987 31.251 31.25 31.251h437.5c17.253 0 31.25-13.997 31.25-31.251 0-17.253-13.997-31.248-31.25-31.248z"/></svg>