<svg id="Capa_1" xmlns="http://www.w3.org/2000/svg" viewBox="184 -126.8 512 512"><style>.st0{fill:#14c5c0}</style><path class="st0" d="M438.1 149.1h3.4c31.1-.5 56.2-11.5 74.7-32.3 40.8-46 34-124.9 33.3-132.4-2.7-56.5-29.4-83.5-51.4-96.2-16.4-9.4-35.6-14.5-57-14.9h-1.7c-11.8 0-34.9 1.9-57 14.5-22.3 12.6-49.4 39.7-52.1 96.6-.7 7.5-7.5 86.4 33.3 132.4 18.4 20.8 43.5 31.7 74.5 32.3zM358.5-13c0-.3.1-.6.1-.8 3.5-76 57.5-84.2 80.6-84.2h1.2c28.6.6 77.3 12.3 80.6 84.2 0 .3 0 .6.1.8.1.7 7.5 72.8-26.2 110.8-13.4 15.1-31.2 22.5-54.6 22.7h-1c-23.3-.2-41.2-7.6-54.5-22.7C351.2 60 358.4-12.4 358.5-13z"/><path class="st0" d="M657.7 279.9v-.3c0-.8-.1-1.7-.1-2.7-.6-21-2-70.1-48-85.8-.3-.1-.7-.2-1.1-.3-47.8-12.2-87.6-39.8-88-40.1-6.5-4.6-15.4-3-19.9 3.5-4.6 6.5-3 15.4 3.5 19.9 1.8 1.3 44 30.6 96.8 44.2 24.7 8.8 27.5 35.2 28.2 59.4 0 1 0 1.8.1 2.7.1 9.5-.5 24.3-2.2 32.8-17.2 9.8-84.5 43.5-186.9 43.5-102 0-169.7-33.8-187-43.6-1.7-8.5-2.4-23.2-2.2-32.8 0-.8.1-1.7.1-2.7.7-24.2 3.5-50.6 28.2-59.4 52.8-13.6 95-43 96.8-44.2 6.5-4.6 8.1-13.5 3.5-19.9-4.6-6.5-13.5-8.1-19.9-3.5-.4.3-40 27.9-88 40.1-.4.1-.7.2-1.1.3-46 15.8-47.4 64.9-48 85.8 0 1 0 1.8-.1 2.7v.3c-.1 5.5-.2 33.8 5.4 48 1.1 2.8 3 5.1 5.5 6.7 3.2 2.1 79.4 50.7 207 50.7s203.8-48.7 207-50.7c2.4-1.6 4.5-3.9 5.5-6.7 5.1-14.1 5-42.4 4.9-47.9z"/></svg>