<svg version="1" xmlns="http://www.w3.org/2000/svg" xmlns:xlink="http://www.w3.org/1999/xlink" viewBox="0 0 390.119 482.429"><defs><path id="a" d="M0 0h390.119v482.429H0z"/></defs><clipPath id="b"><use xlink:href="#a" overflow="visible"/></clipPath><path clip-path="url(#b)" d="M335.008 57.799h-75.094C256.168 25.316 228.531 0 195.059 0c-33.471 0-61.104 25.315-64.85 57.799H55.111C24.721 57.799 0 82.527 0 112.916v2.828c0 23.223 14.46 43.1 34.83 51.199v260.369c0 30.391 24.724 55.117 55.112 55.117h210.236c30.39 0 55.111-24.729 55.111-55.117V166.944c20.369-8.1 34.83-27.977 34.83-51.199v-2.828c0-30.39-24.723-55.118-55.111-55.118m-139.949-31.66c19.037 0 34.928 13.645 38.443 31.66h-76.879c3.515-18.016 19.406-31.66 38.436-31.66M329.15 427.312c0 15.979-13 28.979-28.974 28.979H89.941c-15.973 0-28.973-13.002-28.973-28.979V170.861H329.15v256.451zm34.83-311.568c0 15.978-13 28.979-28.974 28.979H55.111c-15.973 0-28.973-13.001-28.973-28.979v-2.828c0-15.978 13-28.979 28.973-28.979h279.897c15.974 0 28.974 13.001 28.974 28.979l-.002 2.828z"/><path clip-path="url(#b)" d="M124.989 422.863c7.218 0 13.069-5.853 13.069-13.067V262.641c0-7.216-5.852-13.07-13.069-13.07-7.217 0-13.069 5.854-13.069 13.07v147.154c-.001 7.217 5.851 13.068 13.069 13.068m70.07 0c7.219 0 13.07-5.853 13.07-13.067V262.641c0-7.216-5.854-13.07-13.07-13.07s-13.068 5.854-13.068 13.07v147.154c-.001 7.217 5.85 13.068 13.068 13.068m70.07 0c7.217 0 13.068-5.853 13.068-13.067V262.641c0-7.216-5.853-13.07-13.068-13.07-7.219 0-13.07 5.854-13.07 13.07v147.154c-.001 7.217 5.853 13.068 13.07 13.068"/></svg>